<svg t="1736389321708" class="icon" viewBox="0 0 1049 1024" version="1.1" xmlns="http://www.w3.org/2000/svg"
  p-id="20049" width="200" height="200">
  <path
    d="M867.767 991.777H323.984a60.313 60.313 0 0 1-60.225-60.224v-207.93h393.44V327.105h211.007a60.313 60.313 0 0 1 60.225 60.225v543.783a61.544 61.544 0 0 1-60.664 60.664z m-542.025-62.422H865.57V389.088H719.183v335.853a60.313 60.313 0 0 1-60.225 60.225H326.182v144.189z"
    fill="#FF212A" p-id="20050"></path>
  <path
    d="M658.518 782.968H114.735a60.313 60.313 0 0 1-60.225-60.225V178.521a60.313 60.313 0 0 1 60.225-60.225h543.783a60.313 60.313 0 0 1 60.225 60.225v543.783a60.137 60.137 0 0 1-60.225 60.664z m-541.585-62.423H656.76V180.72H116.933v539.826z"
    fill="#2B3033" p-id="20051"></path>
</svg>